<mxfile host="65bd71144e">
    <diagram name="Page-1" id="YrNC15BHSmFHTuPUxvIZ">
        <mxGraphModel dx="2069" dy="579" grid="1" gridSize="10" guides="1" tooltips="1" connect="1" arrows="1" fold="1" page="1" pageScale="1" pageWidth="827" pageHeight="1169" math="0" shadow="0">
            <root>
                <mxCell id="0"/>
                <mxCell id="1" parent="0"/>
                <mxCell id="45" value="" style="rounded=0;whiteSpace=wrap;html=1;" vertex="1" parent="1">
                    <mxGeometry x="-250" y="30" width="1040" height="520" as="geometry"/>
                </mxCell>
                <mxCell id="nxbr4o2TUtsP3Ga2lGvz-1" value=":Patient" style="shape=umlActor;verticalLabelPosition=bottom;verticalAlign=top;html=1;" parent="1" vertex="1">
                    <mxGeometry x="-100" y="137.5" width="30" height="60" as="geometry"/>
                </mxCell>
                <mxCell id="nxbr4o2TUtsP3Ga2lGvz-3" value=":Doctor" style="shape=umlActor;verticalLabelPosition=bottom;verticalAlign=top;html=1;" parent="1" vertex="1">
                    <mxGeometry x="580" y="137.5" width="30" height="60" as="geometry"/>
                </mxCell>
                <mxCell id="nxbr4o2TUtsP3Ga2lGvz-7" value="&lt;span style=&quot;color: rgb(0, 0, 0);&quot;&gt;:Doctors&lt;/span&gt;" style="html=1;whiteSpace=wrap;" parent="1" vertex="1">
                    <mxGeometry x="90" y="150" width="80" height="35" as="geometry"/>
                </mxCell>
                <mxCell id="nxbr4o2TUtsP3Ga2lGvz-10" value="" style="endArrow=none;html=1;edgeStyle=orthogonalEdgeStyle;rounded=0;entryX=0.5;entryY=0.5;entryDx=0;entryDy=0;entryPerimeter=0;exitX=1;exitY=0.5;exitDx=0;exitDy=0;" parent="1" target="nxbr4o2TUtsP3Ga2lGvz-3" edge="1" source="21">
                    <mxGeometry relative="1" as="geometry">
                        <mxPoint x="310" y="139.6" as="sourcePoint"/>
                        <mxPoint x="470" y="139.6" as="targetPoint"/>
                    </mxGeometry>
                </mxCell>
                <mxCell id="30" value="1. setAvailability()" style="edgeLabel;html=1;align=center;verticalAlign=middle;resizable=0;points=[];" vertex="1" connectable="0" parent="nxbr4o2TUtsP3Ga2lGvz-10">
                    <mxGeometry x="-0.1396" y="2" relative="1" as="geometry">
                        <mxPoint as="offset"/>
                    </mxGeometry>
                </mxCell>
                <mxCell id="nxbr4o2TUtsP3Ga2lGvz-15" value="" style="endArrow=none;html=1;edgeStyle=orthogonalEdgeStyle;rounded=0;entryX=0.5;entryY=0;entryDx=0;entryDy=0;exitX=0.44;exitY=0.673;exitDx=0;exitDy=0;exitPerimeter=0;" parent="1" source="nxbr4o2TUtsP3Ga2lGvz-3" target="nxbr4o2TUtsP3Ga2lGvz-21" edge="1">
                    <mxGeometry relative="1" as="geometry">
                        <mxPoint x="494.59999999999997" y="200" as="sourcePoint"/>
                        <mxPoint x="494.59999999999997" y="320" as="targetPoint"/>
                    </mxGeometry>
                </mxCell>
                <mxCell id="36" value="&lt;span style=&quot;color: rgb(0, 0, 0);&quot;&gt;6: viewAppointments()&lt;/span&gt;&lt;br&gt;&lt;span style=&quot;color: rgb(0, 0, 0);&quot;&gt;7:&amp;nbsp;&lt;/span&gt;&lt;span style=&quot;background-color: light-dark(#ffffff, var(--ge-dark-color, #121212));&quot;&gt;cancelAppointment()&lt;/span&gt;" style="edgeLabel;html=1;align=center;verticalAlign=middle;resizable=0;points=[];" vertex="1" connectable="0" parent="nxbr4o2TUtsP3Ga2lGvz-15">
                    <mxGeometry x="0.221" y="1" relative="1" as="geometry">
                        <mxPoint y="-2" as="offset"/>
                    </mxGeometry>
                </mxCell>
                <mxCell id="nxbr4o2TUtsP3Ga2lGvz-21" value=":Appointment" style="html=1;whiteSpace=wrap;" parent="1" vertex="1">
                    <mxGeometry x="553" y="390" width="80" height="35" as="geometry"/>
                </mxCell>
                <mxCell id="nxbr4o2TUtsP3Ga2lGvz-36" value="" style="endArrow=none;html=1;edgeStyle=orthogonalEdgeStyle;rounded=0;entryX=-0.014;entryY=0.862;entryDx=0;entryDy=0;entryPerimeter=0;exitX=0.547;exitY=0.767;exitDx=0;exitDy=0;exitPerimeter=0;" parent="1" source="nxbr4o2TUtsP3Ga2lGvz-1" target="nxbr4o2TUtsP3Ga2lGvz-21" edge="1">
                    <mxGeometry relative="1" as="geometry">
                        <mxPoint x="100" y="200" as="sourcePoint"/>
                        <mxPoint x="450" y="338" as="targetPoint"/>
                        <Array as="points">
                            <mxPoint x="-84" y="420"/>
                        </Array>
                    </mxGeometry>
                </mxCell>
                <mxCell id="33" value="&lt;span style=&quot;color: rgb(0, 0, 0);&quot;&gt;6: viewAppointments()&lt;br&gt;&lt;span style=&quot;color: rgb(0, 0, 0);&quot;&gt;7: cancelAppointment()&lt;/span&gt;&lt;/span&gt;" style="edgeLabel;html=1;align=center;verticalAlign=middle;resizable=0;points=[];" vertex="1" connectable="0" parent="nxbr4o2TUtsP3Ga2lGvz-36">
                    <mxGeometry x="0.6193" y="1" relative="1" as="geometry">
                        <mxPoint x="-122" as="offset"/>
                    </mxGeometry>
                </mxCell>
                <mxCell id="21" value=":Availability" style="html=1;whiteSpace=wrap;" vertex="1" parent="1">
                    <mxGeometry x="312" y="150" width="80" height="35" as="geometry"/>
                </mxCell>
                <mxCell id="37" value="" style="endArrow=none;html=1;edgeStyle=orthogonalEdgeStyle;rounded=0;entryX=0;entryY=0.5;entryDx=0;entryDy=0;exitX=0.5;exitY=0.5;exitDx=0;exitDy=0;exitPerimeter=0;" edge="1" parent="1" source="nxbr4o2TUtsP3Ga2lGvz-1" target="nxbr4o2TUtsP3Ga2lGvz-7">
                    <mxGeometry relative="1" as="geometry">
                        <mxPoint x="-70" y="110" as="sourcePoint"/>
                        <mxPoint x="133" y="110" as="targetPoint"/>
                    </mxGeometry>
                </mxCell>
                <mxCell id="38" value="&lt;span style=&quot;color: rgb(0, 0, 0);&quot;&gt;2. BrowseDoctors()&lt;/span&gt;&lt;div&gt;SelectDoctor()&lt;/div&gt;" style="edgeLabel;html=1;align=center;verticalAlign=middle;resizable=0;points=[];" vertex="1" connectable="0" parent="37">
                    <mxGeometry x="-0.1396" y="2" relative="1" as="geometry">
                        <mxPoint x="10" y="2" as="offset"/>
                    </mxGeometry>
                </mxCell>
                <mxCell id="39" value="" style="endArrow=none;html=1;edgeStyle=orthogonalEdgeStyle;rounded=0;entryX=0;entryY=0.5;entryDx=0;entryDy=0;exitX=1;exitY=0.5;exitDx=0;exitDy=0;" edge="1" parent="1" source="nxbr4o2TUtsP3Ga2lGvz-7" target="21">
                    <mxGeometry relative="1" as="geometry">
                        <mxPoint x="150" y="100" as="sourcePoint"/>
                        <mxPoint x="353" y="100" as="targetPoint"/>
                    </mxGeometry>
                </mxCell>
                <mxCell id="40" value="&lt;span style=&quot;background-color: rgb(255, 255, 255); text-align: left; color: rgb(0, 0, 0);&quot;&gt;3: viewAvailability()&lt;/span&gt;&lt;br style=&quot;background-color: rgb(255, 255, 255); text-align: left;&quot;&gt;&lt;span style=&quot;background-color: rgb(255, 255, 255); text-align: left; color: rgb(0, 0, 0);&quot;&gt;4: selectAvailability()&lt;/span&gt;" style="edgeLabel;html=1;align=center;verticalAlign=middle;resizable=0;points=[];" vertex="1" connectable="0" parent="39">
                    <mxGeometry x="-0.1396" y="2" relative="1" as="geometry">
                        <mxPoint x="9" y="2" as="offset"/>
                    </mxGeometry>
                </mxCell>
                <mxCell id="41" value="" style="endArrow=none;html=1;edgeStyle=orthogonalEdgeStyle;rounded=0;entryX=0;entryY=0;entryDx=0;entryDy=0;exitX=1;exitY=1;exitDx=0;exitDy=0;curved=1;" edge="1" parent="1" source="21" target="nxbr4o2TUtsP3Ga2lGvz-21">
                    <mxGeometry relative="1" as="geometry">
                        <mxPoint x="220" y="290" as="sourcePoint"/>
                        <mxPoint x="423" y="290" as="targetPoint"/>
                        <Array as="points">
                            <mxPoint x="392" y="288"/>
                            <mxPoint x="530" y="288"/>
                            <mxPoint x="530" y="390"/>
                        </Array>
                    </mxGeometry>
                </mxCell>
                <mxCell id="44" value="&lt;span style=&quot;color: rgb(0, 0, 0);&quot;&gt;5: bookAppointment&lt;/span&gt;" style="edgeLabel;html=1;align=center;verticalAlign=middle;resizable=0;points=[];" vertex="1" connectable="0" parent="41">
                    <mxGeometry x="-0.2805" y="12" relative="1" as="geometry">
                        <mxPoint as="offset"/>
                    </mxGeometry>
                </mxCell>
            </root>
        </mxGraphModel>
    </diagram>
</mxfile>